Coordinates
version=1
nRows=6
nColumns=36
inDegrees=yes

Units are S.I. units (second, meters, Newtons, ...)
If the header above contains a line with 'inDegrees', this indicates whether rotational values are in degrees (yes) or radians (no).

endheader
time	pelvis_tilt	pelvis_list	pelvis_rotation	pelvis_tx	pelvis_ty	pelvis_tz	hip_flexion_r	hip_adduction_r	hip_rotation_r	knee_angle_r	knee_angle_r_beta	ankle_angle_r	subtalar_angle_r	mtp_angle_r	hip_flexion_l	hip_adduction_l	hip_rotation_l	knee_angle_l	knee_angle_l_beta	ankle_angle_l	subtalar_angle_l	mtp_angle_l	lumbar_extension	lumbar_bending	lumbar_rotation	arm_flex_r	arm_add_r	arm_rot_r	elbow_flex_r	pro_sup_r	arm_flex_l	arm_add_l	arm_rot_l	elbow_flex_l	pro_sup_l
      0.00000000	      2.32057119	     -3.56421010	      3.16117068	      0.74183521	      1.02721129	      0.86915465	    -17.76483855	      5.23680766	     -3.02355132	      5.18833578	      0.09055354	     14.58340578	      2.08286193	     -7.11418159	     24.45172443	     -6.45459906	     -1.23747102	     15.66634971	      0.27342938	      7.69771404	      1.20968102	     -7.11418159	    -13.84490005	      5.95242538	      4.41328446	     12.66907624	    -13.25821150	     12.84978511	     23.97715455	     84.68891792	     -5.43722918	     -6.18918941	    -11.40470111	     18.61641503	     82.18508784
      0.01666670	      2.83203288	     -2.98622547	      3.59671194	      0.74151033	      1.02029195	      0.86321682	    -18.71068448	      4.80327583	     -3.45641863	      6.28112817	      0.10962637	     12.22113673	     -2.44831032	     -7.18338150	     22.62917668	     -5.22619178	     -0.36926720	     13.64464894	      0.23814405	      5.59387820	      0.35304795	     -7.18338150	    -15.33287184	      5.81588974	      3.93704175	     12.82604967	    -13.16981212	     11.70319280	     24.16829085	     82.69045674	     -5.03323208	     -6.47101046	    -10.25152209	     16.97065700	     81.91716167
      0.03333330	      2.20578371	     -1.85199599	      3.80798865	      0.74401138	      1.01571102	      0.85758822	    -18.20774981	      3.52795768	     -4.03106423	      8.26223081	      0.14420313	     12.16910759	     -4.42424767	     -7.20090863	     22.45317415	     -3.35276691	      0.15040449	     13.40529108	      0.23396647	      2.23631849	     -0.98872336	     -7.20090863	    -14.58390197	      5.02288998	      3.56142052	     12.40639206	    -12.85988364	     10.54686121	     23.18686710	     81.29972738	     -4.82884936	     -6.60861761	    -10.05260997	     15.31966344	     81.19018698
      0.05000000	      2.22224924	     -1.00390757	      4.37275996	      0.74757803	      1.01292236	      0.85257869	    -18.00949251	      2.49192858	     -5.08072925	     11.01904831	      0.19231867	     12.83028351	     -5.21865648	     -7.20705014	     22.27683662	     -2.01963367	      0.28779025	     14.65652685	      0.25580465	      0.92706661	     -1.32015753	     -7.20705014	    -14.66873608	      4.37923355	      2.70119361	     11.98472257	    -12.69983632	      9.82975695	     22.84316626	     80.77460179	     -4.99763688	     -6.71794105	    -10.27553379	     15.16502323	     80.85085650
      0.06666670	      2.35957514	     -0.61353368	      4.83364103	      0.75210868	      1.01225955	      0.84830596	    -17.77544042	      1.92956292	     -5.38105204	     13.86222427	      0.24194146	     12.70120281	     -6.46893091	     -7.23338441	     22.01658868	     -1.23411213	      0.57789638	     16.51843297	      0.28830104	     -0.00267205	     -2.18392198	     -7.23338441	    -14.70615183	      4.12943385	      2.24823004	     11.21925635	    -12.21876184	      6.16696523	     22.47194484	     77.91212295	     -5.22188082	     -6.41181428	    -12.17930136	     15.32746143	     78.49181696
      0.08333330	      2.31374041	      0.02214933	      4.99071717	      0.75725849	      1.01310815	      0.84483208	    -17.20402888	      0.96106019	     -5.00686178	     16.98735086	      0.29648520	     12.06057421	     -7.67933931	     -7.24492853	     21.77522386	     -0.39350402	      0.27561203	     18.46060214	      0.32219829	     -0.60162388	     -2.87801711	     -7.24492853	    -14.50970440	      3.49147018	      2.26176081	      9.85306011	    -12.11540231	      4.33679028	     23.08919961	     75.86058480	     -5.20096958	     -6.28964449	    -12.68143886	     15.04751764	     76.61963476
